<svg width="46" height="46" viewBox="0 0 46 46" fill="none" xmlns="http://www.w3.org/2000/svg">
<g filter="url(#filter0_b_2_321)">
<path d="M23 46C35.7025 46 46 35.7025 46 23C46 10.2975 35.7025 0 23 0C10.2975 0 0 10.2975 0 23C0 35.7025 10.2975 46 23 46Z" fill="url(#paint0_linear_2_321)" fill-opacity="0.2"/>
</g>
<path d="M23 32.4507L29.7921 36.7444C30.0639 36.9221 30.3787 37.0106 30.6974 36.999C31.016 36.9874 31.3244 36.8762 31.5843 36.6791C31.8441 36.4821 32.0439 36.208 32.1588 35.8908C32.2737 35.5737 32.2987 35.2275 32.2306 34.8953L30.4302 26.8185L36.4363 21.374C36.6791 21.1544 36.8547 20.8625 36.9407 20.5356C37.0267 20.2088 37.019 19.8619 36.9187 19.5398C36.8184 19.2176 36.63 18.9348 36.3777 18.7277C36.1255 18.5206 35.8209 18.3987 35.5032 18.3777L27.5987 17.6758L24.5055 10.0396C24.3753 9.72993 24.1639 9.46704 23.8968 9.28259C23.6297 9.09814 23.3182 9 23 9C22.6818 9 22.3704 9.09814 22.1032 9.28259C21.8361 9.46704 21.6247 9.72993 21.4945 10.0396L18.4013 17.6581L10.4968 18.36C10.1791 18.381 9.87451 18.5029 9.62227 18.71C9.37003 18.9171 9.18164 19.1999 9.08132 19.522C8.98099 19.8442 8.97332 20.191 9.05929 20.5179C9.14526 20.8447 9.32094 21.1367 9.56375 21.3562L15.5698 26.8008L13.7694 34.8813C13.7011 35.2135 13.7259 35.5599 13.8407 35.8772C13.9555 36.1945 14.1553 36.4688 14.4152 36.666C14.6751 36.8631 14.9836 36.9744 15.3023 36.9861C15.6211 36.9977 15.936 36.9091 16.2079 36.7313L23 32.4507Z" fill="white"/>
<defs>
<filter id="filter0_b_2_321" x="-34" y="-34" width="114" height="114" filterUnits="userSpaceOnUse" color-interpolation-filters="sRGB">
<feFlood flood-opacity="0" result="BackgroundImageFix"/>
<feGaussianBlur in="BackgroundImageFix" stdDeviation="17"/>
<feComposite in2="SourceAlpha" operator="in" result="effect1_backgroundBlur_2_321"/>
<feBlend mode="normal" in="SourceGraphic" in2="effect1_backgroundBlur_2_321" result="shape"/>
</filter>
<linearGradient id="paint0_linear_2_321" x1="23" y1="0" x2="23" y2="46" gradientUnits="userSpaceOnUse">
<stop stop-color="white"/>
<stop offset="1" stop-color="white" stop-opacity="0"/>
</linearGradient>
</defs>
</svg>
