<svg width="14" height="18" viewBox="0 0 14 18" fill="none" xmlns="http://www.w3.org/2000/svg">
<path d="M13 7.54545C13 12.6364 7 17 7 17C7 17 1 12.6364 1 7.54545C1 5.80949 1.63214 4.14463 2.75736 2.91712C3.88258 1.68961 5.4087 1 7 1C8.5913 1 10.1174 1.68961 11.2426 2.91712C12.3679 4.14463 13 5.80949 13 7.54545Z" stroke="white" stroke-width="2" stroke-linecap="round" stroke-linejoin="round"/>
<path d="M7.00094 9.72692C8.41022 9.72692 9.55267 8.75008 9.55267 7.5451C9.55267 6.34011 8.41022 5.36328 7.00094 5.36328C5.59166 5.36328 4.44922 6.34011 4.44922 7.5451C4.44922 8.75008 5.59166 9.72692 7.00094 9.72692Z" stroke="white" stroke-width="2" stroke-linecap="round" stroke-linejoin="round"/>
</svg>
