<svg width="25" height="25" viewBox="0 0 25 25" fill="none" xmlns="http://www.w3.org/2000/svg">
<path fill-rule="evenodd" clip-rule="evenodd" d="M4.14029 10.9278L4.14177 9.29453C4.14177 8.39615 4.93712 7.66115 5.92019 7.66115H8.95862V6.02571C8.95862 5.12474 9.67172 4.39453 10.5656 4.39453H13.7858C14.6734 4.39453 15.3928 5.1261 15.3928 6.02571V7.66115H18.4313C19.4143 7.66115 20.2186 8.39615 20.2186 9.29453V10.9278H4.14029ZM4.13881 12.5612H20.2185V19.0946C20.2185 19.9928 19.4143 20.7278 18.4312 20.7278H5.92013C4.93706 20.7278 4.13281 19.9928 4.13281 19.0946L4.13881 12.5612ZM10.567 6.0277V7.66108H13.7843V6.0277H10.567ZM10.567 12.5612V14.1945H13.7843V12.5612H10.567Z" fill="white"/>
</svg>
