<svg width="36" height="37" viewBox="0 0 36 37" fill="none" xmlns="http://www.w3.org/2000/svg">
<ellipse cx="18" cy="18.05" rx="18" ry="18.05" fill="white" fill-opacity="0.4"/>
<mask id="mask0_2_276" style="mask-type:alpha" maskUnits="userSpaceOnUse" x="6" y="6" width="24" height="24">
<rect x="6" y="6" width="24" height="24" fill="#D9D9D9"/>
</mask>
<g mask="url(#mask0_2_276)">
<path d="M23.3333 29C22.5926 29 21.963 28.6792 21.4444 28.0375C20.9259 27.3958 20.6667 26.6167 20.6667 25.7C20.6667 25.5717 20.6741 25.4386 20.6889 25.3007C20.7037 25.1636 20.7259 25.04 20.7556 24.93L14.4889 20.42C14.237 20.695 13.9556 20.9102 13.6444 21.0657C13.3333 21.2219 13.0074 21.3 12.6667 21.3C11.9259 21.3 11.2963 20.9792 10.7778 20.3375C10.2593 19.6958 10 18.9167 10 18C10 17.0833 10.2593 16.3042 10.7778 15.6625C11.2963 15.0208 11.9259 14.7 12.6667 14.7C13.0074 14.7 13.3333 14.7777 13.6444 14.9332C13.9556 15.0894 14.237 15.305 14.4889 15.58L20.7556 11.07C20.7259 10.96 20.7037 10.8364 20.6889 10.6993C20.6741 10.5614 20.6667 10.4283 20.6667 10.3C20.6667 9.38333 20.9259 8.60417 21.4444 7.9625C21.963 7.32083 22.5926 7 23.3333 7C24.0741 7 24.7037 7.32083 25.2222 7.9625C25.7407 8.60417 26 9.38333 26 10.3C26 11.2167 25.7407 11.9958 25.2222 12.6375C24.7037 13.2792 24.0741 13.6 23.3333 13.6C22.9926 13.6 22.6667 13.5219 22.3556 13.3657C22.0444 13.2102 21.763 12.995 21.5111 12.72L15.2444 17.23C15.2741 17.34 15.2963 17.4636 15.3111 17.6007C15.3259 17.7386 15.3333 17.8717 15.3333 18C15.3333 18.1283 15.3259 18.2611 15.3111 18.3982C15.2963 18.5361 15.2741 18.66 15.2444 18.77L21.5111 23.28C21.763 23.005 22.0444 22.7894 22.3556 22.6332C22.6667 22.4777 22.9926 22.4 23.3333 22.4C24.0741 22.4 24.7037 22.7208 25.2222 23.3625C25.7407 24.0042 26 24.7833 26 25.7C26 26.6167 25.7407 27.3958 25.2222 28.0375C24.7037 28.6792 24.0741 29 23.3333 29Z" fill="white"/>
</g>
</svg>
